<?xml version="1.0" standalone="no"?>
<!DOCTYPE svg PUBLIC "-//W3C//DTD SVG 20010904//EN"
 "http://www.w3.org/TR/2001/REC-SVG-20010904/DTD/svg10.dtd">
<svg version="1.0" xmlns="http://www.w3.org/2000/svg"
 width="700.000000pt" height="700.000000pt" viewBox="0 0 700.000000 700.000000"
 preserveAspectRatio="xMidYMid meet">
<metadata>
Created by potrace 1.14, written by Peter Selinger 2001-2017
</metadata>
<g transform="translate(0.000000,700.000000) scale(0.100000,-0.100000)"
fill="#000000" stroke="none">
<path d="M1313 6395 c-204 -55 -371 -226 -418 -427 -13 -56 -15 -414 -15
-2803 -1 -2725 -1 -2740 19 -2805 40 -128 130 -226 266 -291 155 -74 -4 -69
2337 -69 2338 0 2174 -5 2323 69 139 69 237 177 277 305 19 59 19 131 18 2796
-1 3030 5 2795 -67 2934 -89 171 -296 306 -470 306 l-43 0 0 -260 0 -260 -290
0 -290 0 0 260 0 260 -290 0 -290 0 0 -260 0 -260 -295 0 -295 0 0 260 0 260
-290 0 -290 0 0 -260 0 -260 -295 0 -295 0 0 260 0 260 -290 0 -290 0 0 -260
0 -260 -290 0 -290 0 0 260 0 260 -47 -1 c-27 0 -71 -7 -100 -14z m3937 -2050
l0 -145 -1750 0 -1750 0 0 145 0 145 1750 0 1750 0 0 -145z m0 -875 l0 -150
-1750 0 -1750 0 0 150 0 150 1750 0 1750 0 0 -150z m0 -875 l0 -145 -1750 0
-1750 0 0 145 0 145 1750 0 1750 0 0 -145z m-2330 -875 l0 -150 -585 0 -585 0
0 150 0 150 585 0 585 0 0 -150z"/>
</g>
</svg>
